<svg xmlns="http://www.w3.org/2000/svg" width="257.669" height="21.183" viewBox="0 0 257.669 21.183">
  <path id="Intersección_1" data-name="Intersección 1" d="M134.288,29.115a7.789,7.789,0,0,1-3.116-3.391,11.923,11.923,0,0,1-1.125-5.225V19.1a12.677,12.677,0,0,1,1.04-5.346,7.7,7.7,0,0,1,3-3.455,9.886,9.886,0,0,1,10.33.553,7.474,7.474,0,0,1,2.45,5.09h-4.135a4.109,4.109,0,0,0-1.254-2.591,4,4,0,0,0-2.668-.822,3.765,3.765,0,0,0-3.3,1.629A8.564,8.564,0,0,0,134.366,19v1.318a8.152,8.152,0,0,0,1.232,4.9,4.217,4.217,0,0,0,3.611,1.657,4.709,4.709,0,0,0,3.413-1.02V22.3h-3.865V19.167h8.113v8.227a7.372,7.372,0,0,1-3.243,2.131,13.584,13.584,0,0,1-4.645.758A9.2,9.2,0,0,1,134.288,29.115Zm-128.716,0a7.787,7.787,0,0,1-3.115-3.391A11.936,11.936,0,0,1,1.331,20.5V19.1a12.677,12.677,0,0,1,1.04-5.346,7.7,7.7,0,0,1,3-3.455A8.648,8.648,0,0,1,9.968,9.1,8.607,8.607,0,0,1,15.7,10.849a7.47,7.47,0,0,1,2.45,5.09H14.018a4.113,4.113,0,0,0-1.253-2.591,4,4,0,0,0-2.669-.822,3.765,3.765,0,0,0-3.3,1.629A8.557,8.557,0,0,0,5.65,19v1.318a8.152,8.152,0,0,0,1.231,4.9,4.218,4.218,0,0,0,3.612,1.657,4.708,4.708,0,0,0,3.412-1.02V22.3H10.04V19.167h8.113v8.227a7.362,7.362,0,0,1-3.243,2.131,13.579,13.579,0,0,1-4.644.758A9.2,9.2,0,0,1,5.572,29.115ZM248.242,30V22.523L241.473,9.383h4.659l4.262,9.29,4.29-9.29H259v.638l-6.44,12.5V30Zm-11.286,0-3.866-7.547h-3.384V30h-4.248V9.383h7.661a8.657,8.657,0,0,1,5.636,1.629,5.62,5.62,0,0,1,1.982,4.6,6.348,6.348,0,0,1-.913,3.519,6.231,6.231,0,0,1-2.768,2.245l4.46,8.425V30Zm-7.25-10.988h3.426a3.5,3.5,0,0,0,2.479-.815,2.91,2.91,0,0,0,.878-2.244,3.117,3.117,0,0,0-.828-2.294,3.442,3.442,0,0,0-2.542-.835h-3.413ZM219.015,30l-1.43-4.248h-7.448L208.721,30H204.2l7.674-20.617h3.937L223.532,30Zm-7.731-7.689h5.154l-2.592-7.718ZM187.1,30V9.383h6.343a9.638,9.638,0,0,1,4.865,1.225,8.549,8.549,0,0,1,3.349,3.484,10.749,10.749,0,0,1,1.2,5.133v.949a10.771,10.771,0,0,1-1.183,5.112,8.463,8.463,0,0,1-3.334,3.469A9.7,9.7,0,0,1,193.485,30Zm4.248-3.412H193.4a4.616,4.616,0,0,0,3.81-1.629,7.359,7.359,0,0,0,1.345-4.658V19.21a7.476,7.476,0,0,0-1.3-4.765,4.6,4.6,0,0,0-3.81-1.621h-2.1ZM179.141,30l-8.27-13.565V30h-4.248V9.383h4.248l8.284,13.595V9.383h4.234V30ZM150.31,30V9.383H164.1v3.442h-9.544v4.913h8.157v3.327h-8.157v5.523h9.572V30Zm-36.066,0V9.383h13.792v3.442h-9.544v4.913h8.156v3.327h-8.156v5.523h9.572V30Zm-15.7,0V9.383h4.249V26.588h9.02V30ZM79.184,30V12.824H72.953V9.383H89.747v3.442H83.432V30Zm-9.7,0-1.43-4.248H60.605L59.189,30H54.672L62.347,9.383h3.937L74,30Zm-7.731-7.689h5.154l-2.591-7.718ZM40.1,30V9.383H53.894v3.442H44.349v4.913h8.157v3.327H44.349v5.523h9.572V30Zm-7.009,0-3.866-7.547H25.843V30H21.595V9.383h7.66a8.654,8.654,0,0,1,5.636,1.629,5.618,5.618,0,0,1,1.983,4.6,6.341,6.341,0,0,1-.914,3.519,6.226,6.226,0,0,1-2.768,2.245l4.46,8.425V30Zm-7.25-10.988h3.426a3.508,3.508,0,0,0,2.479-.815,2.91,2.91,0,0,0,.877-2.244,3.117,3.117,0,0,0-.828-2.294,3.443,3.443,0,0,0-2.542-.835H25.843Z" transform="translate(-1.331 -9.1)" fill="#fff"/>
</svg>
